<?xml version="1.0" encoding="UTF-8"?>
<svg xmlns="http://www.w3.org/2000/svg" xmlns:xlink="http://www.w3.org/1999/xlink" viewBox="0 0 40 40" width="40px" height="40px">
<g id="surface9815835">
<path style=" stroke:none;fill-rule:nonzero;fill:rgb(92.54902%,94.117647%,94.509804%);fill-opacity:1;" d="M 20 40 C 31.027344 40 40 31.027344 40 20 C 40 8.972656 31.027344 0 20 0 C 8.972656 0 0 8.972656 0 20 C 0 31.027344 8.972656 40 20 40 Z M 20 1.332031 C 30.292969 1.332031 38.667969 9.707031 38.667969 20 C 38.667969 30.292969 30.292969 38.667969 20 38.667969 C 9.707031 38.667969 1.332031 30.292969 1.332031 20 C 1.332031 9.707031 9.707031 1.332031 20 1.332031 Z M 20 1.332031 "/>
<path style=" stroke:none;fill-rule:nonzero;fill:rgb(92.54902%,94.117647%,94.509804%);fill-opacity:1;" d="M 22.863281 29.804688 C 22.992188 29.933594 23.164062 30 23.332031 30 C 23.503906 30 23.675781 29.933594 23.804688 29.804688 C 24.066406 29.542969 24.066406 29.121094 23.804688 28.863281 L 14.941406 20 L 23.804688 11.136719 C 24.066406 10.878906 24.066406 10.457031 23.804688 10.195312 C 23.542969 9.933594 23.121094 9.933594 22.863281 10.195312 L 13.527344 19.527344 C 13.269531 19.789062 13.269531 20.210938 13.527344 20.472656 Z M 22.863281 29.804688 "/>
</g>
</svg>
