<?xml version="1.0" encoding="UTF-8"?>
<svg xmlns="http://www.w3.org/2000/svg" xmlns:xlink="http://www.w3.org/1999/xlink" viewBox="0 0 40 40" width="40px" height="40px">
<g id="surface1226381">
<path style=" stroke:none;fill-rule:nonzero;fill:rgb(15.686275%,20.392157%,27.843139%);fill-opacity:1;" d="M 36.335938 0 L 3.664062 0 C 1.667969 0 0 1.667969 0 3.664062 L 0 36.335938 C 0 38.332031 1.667969 40 3.664062 40 L 36.335938 40 C 38.332031 40 40 38.332031 40 36.335938 L 40 3.664062 C 40 1.667969 38.332031 0 36.335938 0 Z M 11.667969 33.332031 L 5 33.332031 L 5 15 L 11.667969 15 Z M 8.332031 12.832031 C 6.335938 12.832031 5 11.496094 5 9.832031 C 5 8 6.335938 6.667969 8.332031 6.667969 C 10.332031 6.667969 11.667969 8 11.667969 9.667969 C 11.667969 11.496094 10.332031 12.832031 8.332031 12.832031 Z M 35 33.332031 L 28.332031 33.332031 L 28.332031 23.332031 C 28.332031 20.664062 26.496094 20 26.003906 20 C 25.5 20 23.332031 20.332031 23.332031 23.332031 C 23.332031 23.664062 23.332031 33.332031 23.332031 33.332031 L 16.667969 33.332031 L 16.667969 15 L 23.332031 15 L 23.332031 17.667969 C 24.335938 16.164062 26.003906 15 29.167969 15 C 32.332031 15 35 17.5 35 23.332031 Z M 35 33.332031 "/>
</g>
</svg>
