<?xml version="1.0" encoding="UTF-8"?>
<svg xmlns="http://www.w3.org/2000/svg" xmlns:xlink="http://www.w3.org/1999/xlink" viewBox="0 0 40 40" width="40px" height="40px">
<g id="surface1120368">
<path style=" stroke:none;fill-rule:nonzero;fill:rgb(15.686275%,20.392157%,27.843139%);fill-opacity:1;" d="M 36.667969 0 L 3.332031 0 C 1.492188 0 0 1.492188 0 3.332031 L 0 36.667969 C 0 38.507812 1.492188 40 3.332031 40 L 36.667969 40 C 38.507812 40 40 38.507812 40 36.667969 L 40 3.332031 C 40 1.492188 38.507812 0 36.667969 0 Z M 36.667969 0 "/>
<path style=" stroke:none;fill-rule:nonzero;fill:rgb(15.686275%,20.392157%,27.843139%);fill-opacity:1;" d="M 36.667969 0 L 20 0 L 20 40 L 36.667969 40 C 38.507812 40 40 38.507812 40 36.667969 L 40 3.332031 C 40 1.492188 38.507812 0 36.667969 0 Z M 36.667969 0 "/>
<path style=" stroke:none;fill-rule:nonzero;fill:rgb(97.254902%,94.117647%,87.450981%);fill-opacity:1;" d="M 24.703125 34.328125 C 23.9375 34.476562 23.671875 34.015625 23.671875 33.628906 C 23.671875 33.152344 23.691406 31.566406 23.691406 29.59375 C 23.691406 28.214844 23.203125 27.308594 22.679688 26.867188 C 26.015625 26.503906 29.523438 25.257812 29.523438 19.59375 C 29.523438 17.984375 28.941406 16.671875 27.988281 15.640625 C 28.136719 15.265625 28.644531 13.769531 27.835938 11.738281 C 27.835938 11.738281 26.582031 11.34375 23.730469 13.25 C 22.53125 12.921875 21.257812 12.757812 19.980469 12.75 C 18.707031 12.757812 17.433594 12.921875 16.230469 13.25 C 13.363281 11.34375 12.105469 11.738281 12.105469 11.738281 C 11.296875 13.769531 11.804688 15.265625 11.972656 15.640625 C 11.011719 16.671875 10.429688 17.984375 10.429688 19.59375 C 10.429688 25.242188 13.933594 26.511719 17.261719 26.878906 C 16.835938 27.25 16.449219 27.898438 16.3125 28.851562 C 15.453125 29.226562 13.28125 29.878906 11.941406 27.625 C 11.941406 27.625 11.152344 26.210938 9.648438 26.109375 C 9.648438 26.109375 8.183594 26.089844 9.542969 27.003906 C 9.542969 27.003906 10.527344 27.457031 11.210938 29.160156 C 11.210938 29.160156 12.089844 32.027344 16.261719 31.136719 C 16.269531 32.363281 16.28125 33.292969 16.28125 33.644531 C 16.28125 34.035156 16.003906 34.492188 15.253906 34.351562 C 9.296875 32.402344 5 26.878906 5 20.363281 C 5 12.226562 11.710938 5.625 20 5.625 C 28.285156 5.625 35 12.226562 35 20.363281 C 35 26.867188 30.707031 32.398438 24.703125 34.328125 Z M 24.703125 34.328125 "/>
<path style=" stroke:none;fill-rule:nonzero;fill:rgb(97.254902%,94.117647%,87.450981%);fill-opacity:1;" d="M 20 5.625 C 11.710938 5.625 5 12.226562 5 20.363281 C 5 26.878906 9.296875 32.402344 15.257812 34.351562 C 15.351562 34.367188 15.4375 34.375 15.519531 34.375 C 16.070312 34.375 16.28125 33.984375 16.28125 33.644531 C 16.28125 33.292969 16.269531 32.363281 16.261719 31.136719 C 15.703125 31.257812 15.203125 31.308594 14.753906 31.308594 C 11.871094 31.308594 11.210938 29.160156 11.210938 29.160156 C 10.527344 27.457031 9.542969 27.003906 9.542969 27.003906 C 8.238281 26.128906 9.53125 26.109375 9.640625 26.109375 L 9.648438 26.109375 C 11.152344 26.210938 11.941406 27.625 11.941406 27.625 C 12.691406 28.886719 13.699219 29.238281 14.59375 29.238281 C 15.300781 29.238281 15.933594 29.019531 16.3125 28.851562 C 16.449219 27.898438 16.832031 27.25 17.261719 26.878906 C 13.933594 26.511719 10.429688 25.246094 10.429688 19.597656 C 10.429688 17.988281 11.011719 16.671875 11.972656 15.640625 C 11.804688 15.265625 11.296875 13.769531 12.105469 11.738281 C 12.105469 11.738281 12.214844 11.703125 12.4375 11.703125 C 12.980469 11.703125 14.203125 11.902344 16.230469 13.25 C 17.429688 12.921875 18.703125 12.761719 19.980469 12.753906 L 20 12.753906 Z M 20 5.625 "/>
</g>
</svg>
