<?xml version="1.0" encoding="UTF-8"?>
<svg xmlns="http://www.w3.org/2000/svg" xmlns:xlink="http://www.w3.org/1999/xlink" viewBox="0 0 40 40" width="40px" height="40px">
<g id="surface9821046">
<path style=" stroke:none;fill-rule:nonzero;fill:rgb(92.54902%,94.117647%,94.509804%);fill-opacity:1;" d="M 20 0 C 8.972656 0 0 8.972656 0 20 C 0 31.027344 8.972656 40 20 40 C 31.027344 40 40 31.027344 40 20 C 40 8.972656 31.027344 0 20 0 Z M 20 38.667969 C 9.707031 38.667969 1.332031 30.292969 1.332031 20 C 1.332031 9.707031 9.707031 1.332031 20 1.332031 C 30.292969 1.332031 38.667969 9.707031 38.667969 20 C 38.667969 30.292969 30.292969 38.667969 20 38.667969 Z M 20 38.667969 "/>
<path style=" stroke:none;fill-rule:nonzero;fill:rgb(92.54902%,94.117647%,94.509804%);fill-opacity:1;" d="M 16.472656 10.195312 C 16.210938 9.933594 15.789062 9.933594 15.527344 10.195312 C 15.269531 10.457031 15.269531 10.878906 15.527344 11.136719 L 24.390625 20 L 15.527344 28.863281 C 15.269531 29.121094 15.269531 29.542969 15.527344 29.804688 C 15.660156 29.933594 15.828125 30 16 30 C 16.171875 30 16.339844 29.933594 16.472656 29.804688 L 25.804688 20.472656 C 26.066406 20.210938 26.066406 19.789062 25.804688 19.527344 Z M 16.472656 10.195312 "/>
</g>
</svg>
